<svg xmlns="http://www.w3.org/2000/svg" xmlns:xlink="http://www.w3.org/1999/xlink" width="100" height="26" viewBox="0 0 100 26"><defs><path id="p3gqa" d="M373.3 36.06c.9 1.51 2.42 2.27 4.54 2.3h.65c2.29 0 4.08-.23 5.38-.69v-2.98l-.7.07c-1.39.09-2.81.14-4.26.14-1.24 0-2.06-.38-2.48-1.12-.41-.75-.61-1.93-.61-3.56 0-1.63.07-2.87.21-3.73.07-.37.18-.68.31-.93s.27-.44.41-.59c.14-.15.33-.26.58-.33a5.1 5.1 0 0 1 1.77-.17 25.2 25.2 0 0 1 2.71.14l.82.08.64.07.44.05.16.01v-2.98c-.98-.33-1.88-.55-2.71-.67-.83-.11-1.94-.17-3.32-.17-2.26 0-3.81.77-4.65 2.3a8.46 8.46 0 0 0-.92 2.69 21.44 21.44 0 0 0-.27 3.67c0 2.82.43 4.96 1.3 6.4zm16.16 2.16V21.19h-3.82v17.03zm5.98-13.57v13.57h3.82V24.65h4.58v-3.46h-12.87v3.46zm9.87 11.7c.2.47.45.84.73 1.08a4.28 4.28 0 0 0 2.74.86h.44l.58-.02c3.37-.09 5.61-.22 6.73-.37v-3.17h-6.26c-.41 0-.72-.04-.96-.14-.32-.12-.49-.48-.49-1.07v-1.93l6.61-.21v-3.16l-6.61-.24v-1.93c0-.37.05-.67.14-.88.14-.28.5-.42 1.07-.42h6.5v-3.19a73.94 73.94 0 0 0-7.54-.37c-.81 0-1.51.12-2.1.37-1.25.56-1.88 1.67-1.88 3.35v9.78c0 .63.1 1.19.3 1.66z"/><path id="p3gqb" d="M440 38.04L441.65 21h5.31l2.21 10.71L451.43 21h5.28l1.7 17.04h-3.75l-1.14-10.45-2.16 10.45h-4.31l-2.25-10.45-1.03 10.45zm19.95-3.54v-9.78c0-1.67.63-2.79 1.88-3.35a5.36 5.36 0 0 1 2.1-.37c3.68.06 6.19.19 7.54.37v3.19h-6.49c-.58 0-.94.14-1.07.42-.1.22-.14.51-.14.88v1.94l6.61.23v3.17l-6.61.2v1.94c0 .59.16.94.48 1.07.24.09.56.14.96.14h6.26v3.16a76.1 76.1 0 0 1-6.73.38l-.58.02h-.44c-.17 0-.39-.01-.66-.04a4.23 4.23 0 0 1-2.08-.82 2.97 2.97 0 0 1-.73-1.09 4.2 4.2 0 0 1-.3-1.66z"/><path id="p3gqc" d="M430.54 28.63v-5.55l1.06-2.56h3.59v8.11h2.46v3.59l-2.46.8v5.25h-4.65v-5.25h-11.41L418 30.89 426.68 14h5.12l-7.28 14.63z"/></defs><g><g transform="translate(-372 -13)"><g><use fill="#3d547d" xlink:href="#p3gqa"/></g><g><use fill="#ff5722" xlink:href="#p3gqb"/></g><g><use fill="#ff5722" xlink:href="#p3gqc"/></g></g></g></svg>